<svg xmlns="http://www.w3.org/2000/svg" viewBox="0 0 1400 900" role="img" aria-labelledby="title desc">
  <title id="title">Indian apartment elevation placeholder</title>
  <desc id="desc">A warm realistic-style mid-rise apartment building with balconies, landscaped entry, and evening Bangalore sky.</desc>
  <defs>
    <linearGradient id="sky" x1="0" y1="0" x2="0" y2="1">
      <stop offset="0" stop-color="#f6c88b"/>
      <stop offset=".42" stop-color="#f6e3c5"/>
      <stop offset="1" stop-color="#ede8dc"/>
    </linearGradient>
    <linearGradient id="glass" x1="0" y1="0" x2="1" y2="1">
      <stop offset="0" stop-color="#d7edf1"/>
      <stop offset=".48" stop-color="#7ea2a9"/>
      <stop offset="1" stop-color="#263d44"/>
    </linearGradient>
    <linearGradient id="stone" x1="0" y1="0" x2="1" y2="0">
      <stop offset="0" stop-color="#b77a49"/>
      <stop offset=".5" stop-color="#e0b07a"/>
      <stop offset="1" stop-color="#8c5834"/>
    </linearGradient>
    <filter id="shadow" x="-20%" y="-20%" width="140%" height="140%">
      <feDropShadow dx="0" dy="30" stdDeviation="24" flood-color="#2d241d" flood-opacity=".28"/>
    </filter>
    <pattern id="grit" width="80" height="80" patternUnits="userSpaceOnUse">
      <circle cx="8" cy="12" r="1.1" fill="#fff" opacity=".14"/>
      <circle cx="46" cy="55" r="1.4" fill="#482f1e" opacity=".08"/>
      <circle cx="70" cy="24" r=".9" fill="#fff" opacity=".12"/>
    </pattern>
  </defs>

  <rect width="1400" height="900" fill="url(#sky)"/>
  <rect width="1400" height="900" fill="url(#grit)"/>

  <ellipse cx="360" cy="780" rx="520" ry="86" fill="#584332" opacity=".18"/>
  <ellipse cx="900" cy="800" rx="420" ry="72" fill="#584332" opacity=".16"/>

  <g opacity=".38">
    <rect x="75" y="447" width="170" height="250" rx="14" fill="#cbbf9d"/>
    <rect x="1110" y="386" width="190" height="300" rx="16" fill="#c9b58e"/>
    <rect x="1015" y="485" width="110" height="210" rx="12" fill="#d5c8a6"/>
  </g>

  <g filter="url(#shadow)">
    <path d="M368 170h652l48 550H317z" fill="#f5eadc"/>
    <path d="M400 139h586l34 64H368z" fill="#dd9d5e"/>
    <path d="M423 170h94v551h-112z" fill="url(#stone)"/>
    <path d="M883 170h94l31 551H901z" fill="url(#stone)"/>
    <path d="M548 197h306v522H532z" fill="#fff8ec"/>

    <g fill="#563924" opacity=".16">
      <rect x="370" y="248" width="650" height="12"/>
      <rect x="360" y="318" width="670" height="12"/>
      <rect x="350" y="388" width="690" height="12"/>
      <rect x="340" y="458" width="710" height="12"/>
      <rect x="330" y="528" width="730" height="12"/>
      <rect x="323" y="598" width="744" height="12"/>
    </g>

    <g>
      <rect x="565" y="225" width="106" height="48" rx="5" fill="url(#glass)"/>
      <rect x="716" y="225" width="106" height="48" rx="5" fill="url(#glass)"/>
      <rect x="556" y="284" width="124" height="23" fill="#d6a26f"/>
      <rect x="707" y="284" width="124" height="23" fill="#d6a26f"/>

      <rect x="558" y="295" width="112" height="48" rx="5" fill="url(#glass)"/>
      <rect x="724" y="295" width="112" height="48" rx="5" fill="url(#glass)"/>
      <rect x="548" y="354" width="132" height="23" fill="#d6a26f"/>
      <rect x="714" y="354" width="132" height="23" fill="#d6a26f"/>

      <rect x="550" y="365" width="112" height="48" rx="5" fill="url(#glass)"/>
      <rect x="732" y="365" width="112" height="48" rx="5" fill="url(#glass)"/>
      <rect x="540" y="424" width="132" height="23" fill="#d6a26f"/>
      <rect x="722" y="424" width="132" height="23" fill="#d6a26f"/>

      <rect x="542" y="435" width="112" height="48" rx="5" fill="url(#glass)"/>
      <rect x="740" y="435" width="112" height="48" rx="5" fill="url(#glass)"/>
      <rect x="532" y="494" width="132" height="23" fill="#d6a26f"/>
      <rect x="730" y="494" width="132" height="23" fill="#d6a26f"/>

      <rect x="535" y="505" width="112" height="48" rx="5" fill="url(#glass)"/>
      <rect x="748" y="505" width="112" height="48" rx="5" fill="url(#glass)"/>
      <rect x="525" y="564" width="132" height="23" fill="#d6a26f"/>
      <rect x="738" y="564" width="132" height="23" fill="#d6a26f"/>

      <rect x="527" y="575" width="112" height="48" rx="5" fill="url(#glass)"/>
      <rect x="756" y="575" width="112" height="48" rx="5" fill="url(#glass)"/>
      <rect x="517" y="634" width="132" height="23" fill="#d6a26f"/>
      <rect x="746" y="634" width="132" height="23" fill="#d6a26f"/>
    </g>

    <g>
      <rect x="428" y="224" width="54" height="54" rx="4" fill="url(#glass)"/>
      <rect x="422" y="293" width="57" height="54" rx="4" fill="url(#glass)"/>
      <rect x="416" y="363" width="60" height="54" rx="4" fill="url(#glass)"/>
      <rect x="410" y="433" width="62" height="54" rx="4" fill="url(#glass)"/>
      <rect x="404" y="503" width="64" height="54" rx="4" fill="url(#glass)"/>
      <rect x="398" y="573" width="67" height="54" rx="4" fill="url(#glass)"/>
    </g>

    <g>
      <rect x="910" y="224" width="54" height="54" rx="4" fill="url(#glass)"/>
      <rect x="914" y="293" width="57" height="54" rx="4" fill="url(#glass)"/>
      <rect x="918" y="363" width="60" height="54" rx="4" fill="url(#glass)"/>
      <rect x="922" y="433" width="62" height="54" rx="4" fill="url(#glass)"/>
      <rect x="926" y="503" width="64" height="54" rx="4" fill="url(#glass)"/>
      <rect x="930" y="573" width="67" height="54" rx="4" fill="url(#glass)"/>
    </g>

    <path d="M505 658h386l15 63H491z" fill="#7d5031"/>
    <rect x="574" y="640" width="244" height="81" rx="12" fill="#e9d2ac"/>
    <rect x="620" y="650" width="68" height="71" rx="7" fill="#24363c"/>
    <rect x="706" y="650" width="68" height="71" rx="7" fill="#24363c"/>
  </g>

  <g>
    <path d="M0 720c190-36 366-37 529-5 142 27 286 24 433-9 181-40 327-25 438 6v188H0z" fill="#806444"/>
    <path d="M0 756c195-18 354-10 477 24 188 52 346 27 473-20 182-67 332-56 450-15v155H0z" fill="#4b6b43"/>
    <path d="M230 828c190-54 386-59 588-16 152 33 277 32 374-4 64-24 133-27 208-8v100H0v-42c68-8 145-18 230-30z" fill="#2f3f31"/>
  </g>

  <g opacity=".92">
    <path d="M110 731c-20 23-31 56-32 101h80c-3-43-19-77-48-101z" fill="#315c3a"/>
    <rect x="106" y="808" width="9" height="45" fill="#5d3a25"/>
    <path d="M1180 706c-37 40-55 86-55 138h117c-5-60-26-106-62-138z" fill="#2f5939"/>
    <rect x="1174" y="806" width="12" height="61" fill="#5d3a25"/>
    <path d="M1004 742c-22 26-33 58-34 96h89c-4-43-22-75-55-96z" fill="#365f38"/>
    <rect x="999" y="813" width="9" height="43" fill="#5d3a25"/>
  </g>
</svg>
